{"asset":{"version":"2.0","generator":"VECTARY"},"nodes":[{"translation":[0.009855480194091796,0.01796607971191406,0.007500000000000002],"scale":[0.001,0.001,0.001],"rotation":[-0.7071067811865475,0,0,0.7071067811865476],"name":"Merged Objects 1","mesh":0},{"translation":[0.011208733654481632,0.08989348856548131,0.4596474352347484],"scale":[1,1,1],"rotation":[8.326672684688674e-17,1.942890293094024e-16,1.6653345369377348e-16,1],"name":"Camera","camera":0}],"materials":[{"pbrMetallicRoughness":{"baseColorFactor":[0.03847274632019464,0.04145189161146246,0.06575388026033009,1],"metallicFactor":0,"roughnessFactor":0.2},"name":"Terrace View","emissiveFactor":[0,0,0],"extensions":{},"alphaMode":"OPAQUE","doubleSided":false}],"meshes":[{"primitives":[{"mode":4,"attributes":{"POSITION":1,"NORMAL":2},"material":0,"indices":0}]}],"accessors":[{"bufferView":0,"byteOffset":0,"componentType":5125,"count":12057,"type":"SCALAR"},{"bufferView":1,"byteOffset":0,"componentType":5126,"count":8020,"max":[121.27284240722656,7.5,79.62065124511719],"min":[-121.27284240722656,-7.5,0],"type":"VEC3"},{"bufferView":2,"byteOffset":0,"componentType":5126,"count":8020,"type":"VEC3"}],"bufferViews":[{"buffer":0,"byteOffset":0,"byteLength":48228,"target":34963},{"buffer":0,"byteOffset":48228,"byteLength":96240,"target":34962},{"buffer":0,"byteOffset":144468,"byteLength":96240,"target":34962}],"cameras":[{"name":"Camera","type":"perspective","extras":{"targetDistance":0.44178673620135583},"perspective":{"aspectRatio":1.3362068965517242,"yfov":0.6108652381980153,"zfar":36.75157113276479,"znear":0.011322492457849852}}],"scene":0,"scenes":[{"nodes":[0,1],"name":"Text"}],"extensionsUsed":["KHR_texture_transform"],"buffers":[{"byteLength":240708,"uri":"Text.bin"}]}