{"asset":{"version":"2.0","generator":"VECTARY"},"nodes":[{"translation":[-0.04741679049397432,0.011270495147828406,-0.00007520790139839484],"scale":[0.0005087447340745091,0.0005087447340745091,0.0004579130840351035],"rotation":[-0.5690400671096024,-0.17452425115661593,0.6309036011463194,0.49768999773225064],"name":"Cone 2","mesh":0},{"translation":[0.011595478079972282,0.024763402879039567,0.027731235698843757],"scale":[0.00045791308403510337,0.0004579130840351034,0.0004579130840351034],"rotation":[-0.2964599284928759,0.25189642223468645,-0.08138089256132391,0.917625660925677],"name":"Cone","mesh":1},{"translation":[0.015679409515957497,-0.006589941306885005,0.028727528650268765],"scale":[0.0001479911606023355,0.00014799116060233548,0.0001479911606023355],"rotation":[-0.34917214255131923,0.11665549749310256,-0.8818554554688826,-0.2946205448208384],"name":"Cone 3","mesh":2},{"translation":[-0.0287758637077065,-0.004644593144878614,0.009021222408828808],"scale":[0.00025744855910635325,0.0002574485591063532,0.0002574485591063532],"rotation":[0.1341445766799228,0.7926117479356292,-0.564136241830609,-0.18847320826851674],"name":"Cone 1","mesh":3},{"translation":[-0.11136421156135284,0.0009012795932455298,0.02773979490455838],"scale":[0.001,0.001,0.001],"rotation":[-0.7071067811865475,0,0,0.7071067811865476],"name":"Point Light","extensions":{"KHR_lights_punctual":{"light":0}}},{"translation":[-0.018066500902175903,-0.011827146793720347,0.0053568455501071775],"scale":[0.001,0.001,0.001],"rotation":[-0.7071067811865475,0,0,0.7071067811865476],"name":"3D Text 1 - G","mesh":4},{"translation":[-0.03578991346614268,0.004041183376164699,-0.01707107049898116],"scale":[0.001,0.001,0.001],"rotation":[-0.7071067811865475,0,0,0.7071067811865476],"name":"3D Text - Y","mesh":5}],"materials":[{"pbrMetallicRoughness":{"baseColorFactor":[1,1,1,1],"metallicFactor":0,"roughnessFactor":0},"name":"Clear Glass","emissiveFactor":[0,0,0],"extensions":{"KHR_materials_transmission":{"transmissionFactor":1},"KHR_materials_ior":{"ior":1.333},"KHR_materials_volume":{"thicknessFactor":0.01,"attenuationDistance":0.01,"attenuationColor":[1,1,1]}},"alphaMode":"OPAQUE","doubleSided":false},{"pbrMetallicRoughness":{"baseColorFactor":[1,1,1,1],"metallicFactor":0,"roughnessFactor":0.31},"name":"Blue","emissiveFactor":[0,0,0],"extensions":{},"alphaMode":"OPAQUE","doubleSided":false},{"pbrMetallicRoughness":{"baseColorFactor":[1,1,1,1],"metallicFactor":0,"roughnessFactor":0.49},"name":"Wax","emissiveFactor":[0,0,0],"extensions":{},"alphaMode":"OPAQUE","doubleSided":false}],"meshes":[{"primitives":[{"mode":4,"attributes":{"POSITION":1,"NORMAL":2,"TEXCOORD_0":3},"material":0,"indices":0}]},{"primitives":[{"mode":4,"attributes":{"POSITION":5,"NORMAL":6,"TEXCOORD_0":7},"material":0,"indices":4}]},{"primitives":[{"mode":4,"attributes":{"POSITION":9,"NORMAL":10,"TEXCOORD_0":11},"material":0,"indices":8}]},{"primitives":[{"mode":4,"attributes":{"POSITION":13,"NORMAL":14,"TEXCOORD_0":15},"material":0,"indices":12}]},{"primitives":[{"mode":4,"attributes":{"POSITION":17,"NORMAL":18,"TEXCOORD_0":19},"material":1,"indices":16}]},{"primitives":[{"mode":4,"attributes":{"POSITION":21,"NORMAL":22,"TEXCOORD_0":23},"material":2,"indices":20}]}],"accessors":[{"bufferView":0,"byteOffset":0,"componentType":5125,"count":2964,"type":"SCALAR"},{"bufferView":1,"byteOffset":0,"componentType":5126,"count":533,"max":[26.331193923950195,26.241260528564453,60.20889663696289],"min":[-26.331193923950195,-26.241260528564453,0],"type":"VEC3"},{"bufferView":2,"byteOffset":0,"componentType":5126,"count":533,"type":"VEC3"},{"bufferView":3,"byteOffset":0,"componentType":5126,"count":533,"type":"VEC2"},{"bufferView":4,"byteOffset":0,"componentType":5125,"count":2964,"type":"SCALAR"},{"bufferView":5,"byteOffset":0,"componentType":5126,"count":533,"max":[26.331193923950195,26.241260528564453,60.20889663696289],"min":[-26.331193923950195,-26.241260528564453,0],"type":"VEC3"},{"bufferView":6,"byteOffset":0,"componentType":5126,"count":533,"type":"VEC3"},{"bufferView":7,"byteOffset":0,"componentType":5126,"count":533,"type":"VEC2"},{"bufferView":8,"byteOffset":0,"componentType":5125,"count":2964,"type":"SCALAR"},{"bufferView":9,"byteOffset":0,"componentType":5126,"count":533,"max":[12.83808422088623,12.794236183166504,60.37085723876953],"min":[-12.83808422088623,-12.794236183166504,0],"type":"VEC3"},{"bufferView":10,"byteOffset":0,"componentType":5126,"count":533,"type":"VEC3"},{"bufferView":11,"byteOffset":0,"componentType":5126,"count":533,"type":"VEC2"},{"bufferView":12,"byteOffset":0,"componentType":5125,"count":2964,"type":"SCALAR"},{"bufferView":13,"byteOffset":0,"componentType":5126,"count":533,"max":[12.83808422088623,12.794236183166504,60.37085723876953],"min":[-12.83808422088623,-12.794236183166504,0],"type":"VEC3"},{"bufferView":14,"byteOffset":0,"componentType":5126,"count":533,"type":"VEC3"},{"bufferView":15,"byteOffset":0,"componentType":5126,"count":533,"type":"VEC2"},{"bufferView":16,"byteOffset":0,"componentType":5125,"count":1260,"type":"SCALAR"},{"bufferView":17,"byteOffset":0,"componentType":5126,"count":840,"max":[33.59400177001953,2.216978084606017e-15,36.20600128173828],"min":[2.5390000343322754,-15,-0.4880000054836273],"type":"VEC3"},{"bufferView":18,"byteOffset":0,"componentType":5126,"count":840,"type":"VEC3"},{"bufferView":19,"byteOffset":0,"componentType":5126,"count":840,"type":"VEC2"},{"bufferView":20,"byteOffset":0,"componentType":5125,"count":96,"type":"SCALAR"},{"bufferView":21,"byteOffset":0,"componentType":5126,"count":66,"max":[33.202999114990234,2.1855658677570914e-15,35.69300079345703],"min":[0,-15,0],"type":"VEC3"},{"bufferView":22,"byteOffset":0,"componentType":5126,"count":66,"type":"VEC3"},{"bufferView":23,"byteOffset":0,"componentType":5126,"count":66,"type":"VEC2"}],"bufferViews":[{"buffer":0,"byteOffset":0,"byteLength":11856,"target":34963},{"buffer":0,"byteOffset":11856,"byteLength":6396,"target":34962},{"buffer":0,"byteOffset":18252,"byteLength":6396,"target":34962},{"buffer":0,"byteOffset":24648,"byteLength":4264,"target":34962},{"buffer":0,"byteOffset":28912,"byteLength":11856,"target":34963},{"buffer":0,"byteOffset":40768,"byteLength":6396,"target":34962},{"buffer":0,"byteOffset":47164,"byteLength":6396,"target":34962},{"buffer":0,"byteOffset":53560,"byteLength":4264,"target":34962},{"buffer":0,"byteOffset":57824,"byteLength":11856,"target":34963},{"buffer":0,"byteOffset":69680,"byteLength":6396,"target":34962},{"buffer":0,"byteOffset":76076,"byteLength":6396,"target":34962},{"buffer":0,"byteOffset":82472,"byteLength":4264,"target":34962},{"buffer":0,"byteOffset":86736,"byteLength":11856,"target":34963},{"buffer":0,"byteOffset":98592,"byteLength":6396,"target":34962},{"buffer":0,"byteOffset":104988,"byteLength":6396,"target":34962},{"buffer":0,"byteOffset":111384,"byteLength":4264,"target":34962},{"buffer":0,"byteOffset":115648,"byteLength":5040,"target":34963},{"buffer":0,"byteOffset":120688,"byteLength":10080,"target":34962},{"buffer":0,"byteOffset":130768,"byteLength":10080,"target":34962},{"buffer":0,"byteOffset":140848,"byteLength":6720,"target":34962},{"buffer":0,"byteOffset":147568,"byteLength":384,"target":34963},{"buffer":0,"byteOffset":147952,"byteLength":792,"target":34962},{"buffer":0,"byteOffset":148744,"byteLength":792,"target":34962},{"buffer":0,"byteOffset":149536,"byteLength":528,"target":34962}],"extensions":{"KHR_lights_punctual":{"lights":[{"name":"Point Light","type":"point","intensity":2,"range":10000,"color":[0.16862745098039217,0,1]}]}},"scene":0,"scenes":[{"nodes":[0,1,2,3,4,5,6],"name":"YG"}],"extensionsUsed":["KHR_texture_transform","KHR_lights_punctual","KHR_materials_ior","KHR_materials_volume","KHR_materials_transmission"],"extensionsRequired":["KHR_lights_punctual"],"buffers":[{"byteLength":150064,"uri":"YG.bin"}]}