{"asset":{"version":"2.0","generator":"VECTARY"},"nodes":[{"translation":[0.13102048394971372,0.0163800150351534,1.7763568394002505e-18],"scale":[0.00033165790615212335,0.00033165790615212335,0.00033165790615212335],"rotation":[-0.49912553513870583,-0.5008729381514841,0.5008729381514841,0.49912553513870594],"name":"3D Text 2 - P","mesh":0},{"translation":[0.13098908187045344,0.025365330730779845,1.7763568394002505e-18],"scale":[0.00033165790615212335,0.00033165790615212335,0.00033165790615212335],"rotation":[-0.49912553513870583,-0.5008729381514841,0.5008729381514841,0.49912553513870594],"name":"3D Text 2 - O","mesh":1},{"translation":[0.13094846036484104,0.036988670985868395,3.552713678800501e-18],"scale":[0.00033165790615212335,0.00033165790615212335,0.00033165790615212335],"rotation":[-0.49912553513870583,-0.5008729381514841,0.5008729381514841,0.49912553513870594],"name":"3D Text 2 - R","mesh":2},{"translation":[0.13091621784063706,0.04621446958332426,3.552713678800501e-18],"scale":[0.00033165790615212335,0.00033165790615212335,0.00033165790615212335],"rotation":[-0.49912553513870583,-0.5008729381514841,0.5008729381514841,0.49912553513870594],"name":"3D Text 2 - T","mesh":3},{"translation":[0.1308873625642365,0.05447104921280095,7.105427357601002e-18],"scale":[0.00033165790615212335,0.00033165790615212335,0.00033165790615212335],"rotation":[-0.49912553513870583,-0.5008729381514841,0.5008729381514841,0.49912553513870594],"name":"3D Text 2 - F","mesh":4},{"translation":[0.13086044285800932,0.06217378943200383,1.0658141036401503e-17],"scale":[0.00033165790615212335,0.00033165790615212335,0.00033165790615212335],"rotation":[-0.49912553513870583,-0.5008729381514841,0.5008729381514841,0.49912553513870594],"name":"3D Text 2 - O","mesh":5},{"translation":[0.1308198213523969,0.07379712968709239,1.4210854715202004e-17],"scale":[0.00033165790615212335,0.00033165790615212335,0.00033165790615212335],"rotation":[-0.49912553513870583,-0.5008729381514841,0.5008729381514841,0.49912553513870594],"name":"3D Text 2 - L","mesh":6},{"translation":[0.13079274883799816,0.08154359407026425,1.4210854715202004e-17],"scale":[0.00033165790615212335,0.00033165790615212335,0.00033165790615212335],"rotation":[-0.49912553513870583,-0.5008729381514841,0.5008729381514841,0.49912553513870594],"name":"3D Text 2 - I","mesh":7},{"translation":[0.13077820659366918,0.08570467700797933,1.4210854715202004e-17],"scale":[0.00033165790615212335,0.00033165790615212335,0.00033165790615212335],"rotation":[-0.49912553513870583,-0.5008729381514841,0.5008729381514841,0.49912553513870594],"name":"3D Text 2 - O","mesh":8},{"translation":[-0.0785454119018506,0.02198982946303255,3.552713678800501e-18],"scale":[0.001,0.001,0.001],"rotation":[-0.7071067811865475,0,0,0.7071067811865476],"name":"3D Text 1 - G","mesh":9},{"translation":[-0.0457841814331006,0.02198982946303255,3.552713678800501e-18],"scale":[0.001,0.001,0.001],"rotation":[-0.7071067811865475,0,0,0.7071067811865476],"name":"3D Text 1 - O","mesh":10},{"translation":[-0.010737794714350607,0.02198982946303255,3.552713678800501e-18],"scale":[0.001,0.001,0.001],"rotation":[-0.7071067811865475,0,0,0.7071067811865476],"name":"3D Text 1 - R","mesh":11},{"translation":[0.017079588098149395,0.02198982946303255,3.552713678800501e-18],"scale":[0.001,0.001,0.001],"rotation":[-0.7071067811865475,0,0,0.7071067811865476],"name":"3D Text 1 - B","mesh":12},{"translation":[0.046237302941899386,0.02198982946303255,3.552713678800501e-18],"scale":[0.001,0.001,0.001],"rotation":[-0.7071067811865475,0,0,0.7071067811865476],"name":"3D Text 1 - A","mesh":13},{"translation":[0.0747138654418994,0.02198982946303255,3.552713678800501e-18],"scale":[0.001,0.001,0.001],"rotation":[-0.7071067811865475,0,0,0.7071067811865476],"name":"3D Text 1 - N","mesh":14},{"translation":[-0.11141736507415771,0.05996983227827824,1.0658141036401503e-17],"scale":[0.001,0.001,0.001],"rotation":[-0.7071067811865475,0,0,0.7071067811865476],"name":"3D Text - Y","mesh":15},{"translation":[-0.08621472835540772,0.05996983227827824,1.0658141036401503e-17],"scale":[0.001,0.001,0.001],"rotation":[-0.7071067811865475,0,0,0.7071067811865476],"name":"3D Text - A","mesh":16},{"translation":[-0.05773816585540772,0.05996983227827824,1.0658141036401503e-17],"scale":[0.001,0.001,0.001],"rotation":[-0.7071067811865475,0,0,0.7071067811865476],"name":"3D Text - R","mesh":17},{"translation":[-0.029920783042907715,0.05996983227827824,1.0658141036401503e-17],"scale":[0.001,0.001,0.001],"rotation":[-0.7071067811865475,0,0,0.7071067811865476],"name":"3D Text - O","mesh":18},{"translation":[0.005125603675842285,0.05996983227827824,1.0658141036401503e-17],"scale":[0.001,0.001,0.001],"rotation":[-0.7071067811865475,0,0,0.7071067811865476],"name":"3D Text - S","mesh":19},{"translation":[0.029822869300842287,0.05996983227827824,1.0658141036401503e-17],"scale":[0.001,0.001,0.001],"rotation":[-0.7071067811865475,0,0,0.7071067811865476],"name":"3D Text - L","mesh":20},{"translation":[0.05317980289459229,0.05996983227827824,1.0658141036401503e-17],"scale":[0.001,0.001,0.001],"rotation":[-0.7071067811865475,0,0,0.7071067811865476],"name":"3D Text - A","mesh":21},{"translation":[0.08165636539459228,0.05996983227827824,1.0658141036401503e-17],"scale":[0.001,0.001,0.001],"rotation":[-0.7071067811865475,0,0,0.7071067811865476],"name":"3D Text - V","mesh":22},{"translation":[0.011208733654481332,0.08989348856548156,0.45964743523474844],"scale":[1,1,1],"rotation":[-1.3877787807814457e-16,-1.3877787807814457e-16,1.6653345369377348e-16,1],"name":"Camera","camera":0}],"materials":[{"pbrMetallicRoughness":{"baseColorFactor":[0.8670237934377415,0.8670237934377415,0.8670237934377415,1],"metallicFactor":0,"roughnessFactor":0.2},"name":"Fusion Elixir","emissiveFactor":[0,0,0],"extensions":{},"alphaMode":"OPAQUE","doubleSided":false},{"pbrMetallicRoughness":{"baseColorFactor":[0.8670237934377415,0.8670237934377415,0.8670237934377415,1],"metallicFactor":0,"roughnessFactor":0.2},"name":"Terrace View","emissiveFactor":[0,0,0],"extensions":{},"alphaMode":"OPAQUE","doubleSided":false},{"pbrMetallicRoughness":{"baseColorFactor":[0.8670237934377415,0.8670237934377415,0.8670237934377415,1],"metallicFactor":0,"roughnessFactor":0.2},"name":"Hugo","emissiveFactor":[0,0,0],"extensions":{},"alphaMode":"OPAQUE","doubleSided":false}],"meshes":[{"primitives":[{"mode":4,"attributes":{"POSITION":1,"NORMAL":2,"TEXCOORD_0":3},"material":0,"indices":0}]},{"primitives":[{"mode":4,"attributes":{"POSITION":5,"NORMAL":6,"TEXCOORD_0":7},"material":0,"indices":4}]},{"primitives":[{"mode":4,"attributes":{"POSITION":9,"NORMAL":10,"TEXCOORD_0":11},"material":0,"indices":8}]},{"primitives":[{"mode":4,"attributes":{"POSITION":13,"NORMAL":14,"TEXCOORD_0":15},"material":0,"indices":12}]},{"primitives":[{"mode":4,"attributes":{"POSITION":17,"NORMAL":18,"TEXCOORD_0":19},"material":0,"indices":16}]},{"primitives":[{"mode":4,"attributes":{"POSITION":5,"NORMAL":6,"TEXCOORD_0":7},"material":0,"indices":4}]},{"primitives":[{"mode":4,"attributes":{"POSITION":21,"NORMAL":22,"TEXCOORD_0":23},"material":0,"indices":20}]},{"primitives":[{"mode":4,"attributes":{"POSITION":25,"NORMAL":26,"TEXCOORD_0":27},"material":0,"indices":24}]},{"primitives":[{"mode":4,"attributes":{"POSITION":5,"NORMAL":6,"TEXCOORD_0":7},"material":0,"indices":4}]},{"primitives":[{"mode":4,"attributes":{"POSITION":29,"NORMAL":30,"TEXCOORD_0":31},"material":1,"indices":28}]},{"primitives":[{"mode":4,"attributes":{"POSITION":33,"NORMAL":34,"TEXCOORD_0":35},"material":1,"indices":32}]},{"primitives":[{"mode":4,"attributes":{"POSITION":37,"NORMAL":38,"TEXCOORD_0":39},"material":1,"indices":36}]},{"primitives":[{"mode":4,"attributes":{"POSITION":41,"NORMAL":42,"TEXCOORD_0":43},"material":1,"indices":40}]},{"primitives":[{"mode":4,"attributes":{"POSITION":45,"NORMAL":46,"TEXCOORD_0":47},"material":1,"indices":44}]},{"primitives":[{"mode":4,"attributes":{"POSITION":49,"NORMAL":50,"TEXCOORD_0":51},"material":1,"indices":48}]},{"primitives":[{"mode":4,"attributes":{"POSITION":53,"NORMAL":54,"TEXCOORD_0":55},"material":2,"indices":52}]},{"primitives":[{"mode":4,"attributes":{"POSITION":57,"NORMAL":58,"TEXCOORD_0":59},"material":2,"indices":56}]},{"primitives":[{"mode":4,"attributes":{"POSITION":61,"NORMAL":62,"TEXCOORD_0":63},"material":2,"indices":60}]},{"primitives":[{"mode":4,"attributes":{"POSITION":65,"NORMAL":66,"TEXCOORD_0":67},"material":2,"indices":64}]},{"primitives":[{"mode":4,"attributes":{"POSITION":69,"NORMAL":70,"TEXCOORD_0":71},"material":2,"indices":68}]},{"primitives":[{"mode":4,"attributes":{"POSITION":73,"NORMAL":74,"TEXCOORD_0":75},"material":2,"indices":72}]},{"primitives":[{"mode":4,"attributes":{"POSITION":57,"NORMAL":58,"TEXCOORD_0":59},"material":2,"indices":56}]},{"primitives":[{"mode":4,"attributes":{"POSITION":77,"NORMAL":78,"TEXCOORD_0":79},"material":2,"indices":76}]}],"accessors":[{"bufferView":0,"byteOffset":0,"componentType":5125,"count":516,"type":"SCALAR"},{"bufferView":1,"byteOffset":0,"componentType":5126,"count":340,"max":[27.538999557495117,2.1855658677570914e-15,35.69300079345703],"min":[4.9070000648498535,-15,0],"type":"VEC3"},{"bufferView":2,"byteOffset":0,"componentType":5126,"count":340,"type":"VEC3"},{"bufferView":3,"byteOffset":0,"componentType":5126,"count":340,"type":"VEC2"},{"bufferView":4,"byteOffset":0,"componentType":5125,"count":960,"type":"SCALAR"},{"bufferView":5,"byteOffset":0,"componentType":5126,"count":640,"max":[35.888999938964844,2.2199784870634287e-15,36.255001068115234],"min":[3.052000045776367,-15,-0.4880000054836273],"type":"VEC3"},{"bufferView":6,"byteOffset":0,"componentType":5126,"count":640,"type":"VEC3"},{"bufferView":7,"byteOffset":0,"componentType":5126,"count":640,"type":"VEC2"},{"bufferView":8,"byteOffset":0,"componentType":5125,"count":552,"type":"SCALAR"},{"bufferView":9,"byteOffset":0,"componentType":5126,"count":366,"max":[30.054000854492188,2.1855658677570914e-15,35.69300079345703],"min":[4.9070000648498535,-15,0],"type":"VEC3"},{"bufferView":10,"byteOffset":0,"componentType":5126,"count":366,"type":"VEC3"},{"bufferView":11,"byteOffset":0,"componentType":5126,"count":366,"type":"VEC2"},{"bufferView":12,"byteOffset":0,"componentType":5125,"count":84,"type":"SCALAR"},{"bufferView":13,"byteOffset":0,"componentType":5126,"count":50,"max":[27.19700050354004,2.1855658677570914e-15,35.69300079345703],"min":[0.4390000104904175,-15,0],"type":"VEC3"},{"bufferView":14,"byteOffset":0,"componentType":5126,"count":50,"type":"VEC3"},{"bufferView":15,"byteOffset":0,"componentType":5126,"count":50,"type":"VEC2"},{"bufferView":16,"byteOffset":0,"componentType":5125,"count":108,"type":"SCALAR"},{"bufferView":17,"byteOffset":0,"componentType":5126,"count":69,"max":[24.80500030517578,2.1855658677570914e-15,35.69300079345703],"min":[4.9070000648498535,-15,0],"type":"VEC3"},{"bufferView":18,"byteOffset":0,"componentType":5126,"count":69,"type":"VEC3"},{"bufferView":19,"byteOffset":0,"componentType":5126,"count":69,"type":"VEC2"},{"bufferView":20,"byteOffset":0,"componentType":5125,"count":60,"type":"SCALAR"},{"bufferView":21,"byteOffset":0,"componentType":5126,"count":39,"max":[24.80500030517578,2.1855658677570914e-15,35.69300079345703],"min":[4.9070000648498535,-15,0],"type":"VEC3"},{"bufferView":22,"byteOffset":0,"componentType":5126,"count":39,"type":"VEC3"},{"bufferView":23,"byteOffset":0,"componentType":5126,"count":39,"type":"VEC2"},{"bufferView":24,"byteOffset":0,"componentType":5125,"count":36,"type":"SCALAR"},{"bufferView":25,"byteOffset":0,"componentType":5126,"count":24,"max":[9.057999610900879,2.1855658677570914e-15,35.69300079345703],"min":[4.9070000648498535,-15,0],"type":"VEC3"},{"bufferView":26,"byteOffset":0,"componentType":5126,"count":24,"type":"VEC3"},{"bufferView":27,"byteOffset":0,"componentType":5126,"count":24,"type":"VEC2"},{"bufferView":28,"byteOffset":0,"componentType":5125,"count":900,"type":"SCALAR"},{"bufferView":29,"byteOffset":0,"componentType":5126,"count":600,"max":[32.73899841308594,2.216978084606017e-15,36.20600128173828],"min":[3.052000045776367,-15,-0.4880000054836273],"type":"VEC3"},{"bufferView":30,"byteOffset":0,"componentType":5126,"count":600,"type":"VEC3"},{"bufferView":31,"byteOffset":0,"componentType":5126,"count":600,"type":"VEC2"},{"bufferView":32,"byteOffset":0,"componentType":5125,"count":960,"type":"SCALAR"},{"bufferView":33,"byteOffset":0,"componentType":5126,"count":640,"max":[35.888999938964844,2.2199784870634287e-15,36.255001068115234],"min":[3.052000045776367,-15,-0.4880000054836273],"type":"VEC3"},{"bufferView":34,"byteOffset":0,"componentType":5126,"count":640,"type":"VEC3"},{"bufferView":35,"byteOffset":0,"componentType":5126,"count":640,"type":"VEC2"},{"bufferView":36,"byteOffset":0,"componentType":5125,"count":552,"type":"SCALAR"},{"bufferView":37,"byteOffset":0,"componentType":5126,"count":366,"max":[30.054000854492188,2.1855658677570914e-15,35.69300079345703],"min":[4.9070000648498535,-15,0],"type":"VEC3"},{"bufferView":38,"byteOffset":0,"componentType":5126,"count":366,"type":"VEC3"},{"bufferView":39,"byteOffset":0,"componentType":5126,"count":366,"type":"VEC2"},{"bufferView":40,"byteOffset":0,"componentType":5125,"count":1032,"type":"SCALAR"},{"bufferView":41,"byteOffset":0,"componentType":5126,"count":682,"max":[29.638999938964844,2.1855658677570914e-15,35.69300079345703],"min":[4.9070000648498535,-15,0],"type":"VEC3"},{"bufferView":42,"byteOffset":0,"componentType":5126,"count":682,"type":"VEC3"},{"bufferView":43,"byteOffset":0,"componentType":5126,"count":682,"type":"VEC2"},{"bufferView":44,"byteOffset":0,"componentType":5125,"count":252,"type":"SCALAR"},{"bufferView":45,"byteOffset":0,"componentType":5126,"count":172,"max":[31.641000747680664,2.194567075129326e-15,35.84000015258789],"min":[0,-15,0],"type":"VEC3"},{"bufferView":46,"byteOffset":0,"componentType":5126,"count":172,"type":"VEC3"},{"bufferView":47,"byteOffset":0,"componentType":5126,"count":172,"type":"VEC2"},{"bufferView":48,"byteOffset":0,"componentType":5125,"count":372,"type":"SCALAR"},{"bufferView":49,"byteOffset":0,"componentType":5126,"count":240,"max":[32.78799819946289,2.1855658677570914e-15,35.69300079345703],"min":[4.9070000648498535,-15,0],"type":"VEC3"},{"bufferView":50,"byteOffset":0,"componentType":5126,"count":240,"type":"VEC3"},{"bufferView":51,"byteOffset":0,"componentType":5126,"count":240,"type":"VEC2"},{"bufferView":52,"byteOffset":0,"componentType":5125,"count":96,"type":"SCALAR"},{"bufferView":53,"byteOffset":0,"componentType":5126,"count":66,"max":[28.003000259399414,2.1855658677570914e-15,35.69300079345703],"min":[0,-15,0],"type":"VEC3"},{"bufferView":54,"byteOffset":0,"componentType":5126,"count":66,"type":"VEC3"},{"bufferView":55,"byteOffset":0,"componentType":5126,"count":66,"type":"VEC2"},{"bufferView":56,"byteOffset":0,"componentType":5125,"count":252,"type":"SCALAR"},{"bufferView":57,"byteOffset":0,"componentType":5126,"count":171,"max":[31.641000747680664,2.194567075129326e-15,35.84000015258789],"min":[0,-15,0],"type":"VEC3"},{"bufferView":58,"byteOffset":0,"componentType":5126,"count":171,"type":"VEC3"},{"bufferView":59,"byteOffset":0,"componentType":5126,"count":171,"type":"VEC2"},{"bufferView":60,"byteOffset":0,"componentType":5125,"count":552,"type":"SCALAR"},{"bufferView":61,"byteOffset":0,"componentType":5126,"count":366,"max":[30.054000854492188,2.1855658677570914e-15,35.69300079345703],"min":[4.9070000648498535,-15,0],"type":"VEC3"},{"bufferView":62,"byteOffset":0,"componentType":5126,"count":366,"type":"VEC3"},{"bufferView":63,"byteOffset":0,"componentType":5126,"count":366,"type":"VEC2"},{"bufferView":64,"byteOffset":0,"componentType":5125,"count":960,"type":"SCALAR"},{"bufferView":65,"byteOffset":0,"componentType":5126,"count":640,"max":[35.888999938964844,2.2199784870634287e-15,36.255001068115234],"min":[3.052000045776367,-15,-0.4880000054836273],"type":"VEC3"},{"bufferView":66,"byteOffset":0,"componentType":5126,"count":640,"type":"VEC3"},{"bufferView":67,"byteOffset":0,"componentType":5126,"count":640,"type":"VEC2"},{"bufferView":68,"byteOffset":0,"componentType":5125,"count":1392,"type":"SCALAR"},{"bufferView":69,"byteOffset":0,"componentType":5126,"count":930,"max":[25.048999786376953,2.216978084606017e-15,36.20600128173828],"min":[2.5880000591278076,-15,-0.4880000054836273],"type":"VEC3"},{"bufferView":70,"byteOffset":0,"componentType":5126,"count":930,"type":"VEC3"},{"bufferView":71,"byteOffset":0,"componentType":5126,"count":930,"type":"VEC2"},{"bufferView":72,"byteOffset":0,"componentType":5125,"count":60,"type":"SCALAR"},{"bufferView":73,"byteOffset":0,"componentType":5126,"count":39,"max":[24.80500030517578,2.1855658677570914e-15,35.69300079345703],"min":[4.9070000648498535,-15,0],"type":"VEC3"},{"bufferView":74,"byteOffset":0,"componentType":5126,"count":39,"type":"VEC3"},{"bufferView":75,"byteOffset":0,"componentType":5126,"count":39,"type":"VEC2"},{"bufferView":76,"byteOffset":0,"componentType":5125,"count":192,"type":"SCALAR"},{"bufferView":77,"byteOffset":0,"componentType":5126,"count":132,"max":[29.76099967956543,2.1855658677570914e-15,35.69300079345703],"min":[0,-15,0],"type":"VEC3"},{"bufferView":78,"byteOffset":0,"componentType":5126,"count":132,"type":"VEC3"},{"bufferView":79,"byteOffset":0,"componentType":5126,"count":132,"type":"VEC2"}],"bufferViews":[{"buffer":0,"byteOffset":0,"byteLength":2064,"target":34963},{"buffer":0,"byteOffset":2064,"byteLength":4080,"target":34962},{"buffer":0,"byteOffset":6144,"byteLength":4080,"target":34962},{"buffer":0,"byteOffset":10224,"byteLength":2720,"target":34962},{"buffer":0,"byteOffset":12944,"byteLength":3840,"target":34963},{"buffer":0,"byteOffset":16784,"byteLength":7680,"target":34962},{"buffer":0,"byteOffset":24464,"byteLength":7680,"target":34962},{"buffer":0,"byteOffset":32144,"byteLength":5120,"target":34962},{"buffer":0,"byteOffset":37264,"byteLength":2208,"target":34963},{"buffer":0,"byteOffset":39472,"byteLength":4392,"target":34962},{"buffer":0,"byteOffset":43864,"byteLength":4392,"target":34962},{"buffer":0,"byteOffset":48256,"byteLength":2928,"target":34962},{"buffer":0,"byteOffset":51184,"byteLength":336,"target":34963},{"buffer":0,"byteOffset":51520,"byteLength":600,"target":34962},{"buffer":0,"byteOffset":52120,"byteLength":600,"target":34962},{"buffer":0,"byteOffset":52720,"byteLength":400,"target":34962},{"buffer":0,"byteOffset":53120,"byteLength":432,"target":34963},{"buffer":0,"byteOffset":53552,"byteLength":828,"target":34962},{"buffer":0,"byteOffset":54380,"byteLength":828,"target":34962},{"buffer":0,"byteOffset":55208,"byteLength":552,"target":34962},{"buffer":0,"byteOffset":55760,"byteLength":240,"target":34963},{"buffer":0,"byteOffset":56000,"byteLength":468,"target":34962},{"buffer":0,"byteOffset":56468,"byteLength":468,"target":34962},{"buffer":0,"byteOffset":56936,"byteLength":312,"target":34962},{"buffer":0,"byteOffset":57248,"byteLength":144,"target":34963},{"buffer":0,"byteOffset":57392,"byteLength":288,"target":34962},{"buffer":0,"byteOffset":57680,"byteLength":288,"target":34962},{"buffer":0,"byteOffset":57968,"byteLength":192,"target":34962},{"buffer":0,"byteOffset":58160,"byteLength":3600,"target":34963},{"buffer":0,"byteOffset":61760,"byteLength":7200,"target":34962},{"buffer":0,"byteOffset":68960,"byteLength":7200,"target":34962},{"buffer":0,"byteOffset":76160,"byteLength":4800,"target":34962},{"buffer":0,"byteOffset":80960,"byteLength":3840,"target":34963},{"buffer":0,"byteOffset":84800,"byteLength":7680,"target":34962},{"buffer":0,"byteOffset":92480,"byteLength":7680,"target":34962},{"buffer":0,"byteOffset":100160,"byteLength":5120,"target":34962},{"buffer":0,"byteOffset":105280,"byteLength":2208,"target":34963},{"buffer":0,"byteOffset":107488,"byteLength":4392,"target":34962},{"buffer":0,"byteOffset":111880,"byteLength":4392,"target":34962},{"buffer":0,"byteOffset":116272,"byteLength":2928,"target":34962},{"buffer":0,"byteOffset":119200,"byteLength":4128,"target":34963},{"buffer":0,"byteOffset":123328,"byteLength":8184,"target":34962},{"buffer":0,"byteOffset":131512,"byteLength":8184,"target":34962},{"buffer":0,"byteOffset":139696,"byteLength":5456,"target":34962},{"buffer":0,"byteOffset":145152,"byteLength":1008,"target":34963},{"buffer":0,"byteOffset":146160,"byteLength":2064,"target":34962},{"buffer":0,"byteOffset":148224,"byteLength":2064,"target":34962},{"buffer":0,"byteOffset":150288,"byteLength":1376,"target":34962},{"buffer":0,"byteOffset":151664,"byteLength":1488,"target":34963},{"buffer":0,"byteOffset":153152,"byteLength":2880,"target":34962},{"buffer":0,"byteOffset":156032,"byteLength":2880,"target":34962},{"buffer":0,"byteOffset":158912,"byteLength":1920,"target":34962},{"buffer":0,"byteOffset":160832,"byteLength":384,"target":34963},{"buffer":0,"byteOffset":161216,"byteLength":792,"target":34962},{"buffer":0,"byteOffset":162008,"byteLength":792,"target":34962},{"buffer":0,"byteOffset":162800,"byteLength":528,"target":34962},{"buffer":0,"byteOffset":163328,"byteLength":1008,"target":34963},{"buffer":0,"byteOffset":164336,"byteLength":2052,"target":34962},{"buffer":0,"byteOffset":166388,"byteLength":2052,"target":34962},{"buffer":0,"byteOffset":168440,"byteLength":1368,"target":34962},{"buffer":0,"byteOffset":169808,"byteLength":2208,"target":34963},{"buffer":0,"byteOffset":172016,"byteLength":4392,"target":34962},{"buffer":0,"byteOffset":176408,"byteLength":4392,"target":34962},{"buffer":0,"byteOffset":180800,"byteLength":2928,"target":34962},{"buffer":0,"byteOffset":183728,"byteLength":3840,"target":34963},{"buffer":0,"byteOffset":187568,"byteLength":7680,"target":34962},{"buffer":0,"byteOffset":195248,"byteLength":7680,"target":34962},{"buffer":0,"byteOffset":202928,"byteLength":5120,"target":34962},{"buffer":0,"byteOffset":208048,"byteLength":5568,"target":34963},{"buffer":0,"byteOffset":213616,"byteLength":11160,"target":34962},{"buffer":0,"byteOffset":224776,"byteLength":11160,"target":34962},{"buffer":0,"byteOffset":235936,"byteLength":7440,"target":34962},{"buffer":0,"byteOffset":243376,"byteLength":240,"target":34963},{"buffer":0,"byteOffset":243616,"byteLength":468,"target":34962},{"buffer":0,"byteOffset":244084,"byteLength":468,"target":34962},{"buffer":0,"byteOffset":244552,"byteLength":312,"target":34962},{"buffer":0,"byteOffset":244864,"byteLength":768,"target":34963},{"buffer":0,"byteOffset":245632,"byteLength":1584,"target":34962},{"buffer":0,"byteOffset":247216,"byteLength":1584,"target":34962},{"buffer":0,"byteOffset":248800,"byteLength":1056,"target":34962}],"cameras":[{"name":"Camera","type":"perspective","extras":{"targetDistance":0.4417867362013558},"perspective":{"aspectRatio":1.3362068965517242,"yfov":0.6108652381980153,"zfar":36.751571132764795,"znear":0.011322492457849852}}],"scene":0,"scenes":[{"nodes":[0,1,2,3,4,5,6,7,8,9,10,11,12,13,14,15,16,17,18,19,20,21,22,23],"name":"Thumbs Up (template)"}],"extensionsUsed":["KHR_texture_transform"],"buffers":[{"byteLength":249856,"uri":"ThumbsUp (template).bin"}]}